<svg width="46" height="56" viewBox="0 0 46 56" fill="none" xmlns="http://www.w3.org/2000/svg">
<rect width="2.06992" height="1.67839" transform="matrix(-0.99915 0.0412265 -0.066418 -0.997792 38.0549 9.07607)" fill="#BA3E03" fill-opacity="0.35"/>
<rect width="5.19639" height="1.06439" transform="matrix(-0.636307 0.771436 -0.89037 -0.455237 17.0549 33.4829)" fill="#FF21FB" fill-opacity="0.35"/>
<rect width="3.20637" height="2.12951" transform="matrix(-0.0443105 0.999018 -0.999622 -0.0274834 12.0549 50.0166)" fill="#FF21FB" fill-opacity="0.45"/>
<rect width="4.96446" height="1.10207" transform="matrix(0.438245 0.898856 -0.957239 0.2893 1.05493 31.121)" fill="#FF21FB"/>
<ellipse cx="6" cy="25.5" rx="1" ry="0.5" fill="#FF21FB" fill-opacity="0.6"/>
<ellipse cx="32.5" cy="7.00002" rx="1.5" ry="1" fill="#FFED36" fill-opacity="0.85"/>
<circle cx="31.5" cy="18.5" r="0.5" fill="#9DED1A" fill-opacity="0.45"/>
<path d="M28.145 54.836L28.1137 53.4277L29.9025 53.4031L29.9337 54.8114L28.145 54.836Z" fill="#FC9E1C" fill-opacity="0.9"/>
<path d="M27.2941 52.3156L26.6133 51.6536L27.4541 51.1176L28.1349 51.7796L27.2941 52.3156Z" fill="#FFED36" fill-opacity="0.35"/>
<path d="M7.72402 2.28225L8.02222 3.10103L6.98226 3.33581L6.68405 2.51703L7.72402 2.28225Z" fill="#DCBCFA" fill-opacity="0.35"/>
<path d="M29.5678 35.1292L31.6348 35.2716L32.1016 36.8633L30.323 37.7047L28.7571 36.6329L29.5678 35.1292Z" fill="#03A3F5" fill-opacity="0.9"/>
<path d="M17.6276 9.23255L19.3901 9.30527L20.1914 10.5434L19.2301 11.7089L17.4676 11.6361L16.6663 10.398L17.6276 9.23255Z" fill="#9DED1A" fill-opacity="0.65"/>
<path d="M34.7135 25.1345L36.9757 25.965L35.9208 27.7461L33.6586 26.9156L34.7135 25.1345Z" fill="#F54721" fill-opacity="0.35"/>
<path d="M12.291 2.82604L10.671 0.784884L13.7262 0.700885L12.291 2.82604Z" fill="#C9FCBE" fill-opacity="0.65"/>
<path d="M22.4876 45.4413L22.0777 46.5667L20.5915 46.6076L20.0829 45.5074L21.2547 44.7866L22.4876 45.4413Z" fill="#DCBCFA"/>
<path d="M4.24 20.3015L5.51369 20.0139L5.19314 21.0261L4.24 20.3015Z" fill="#FFED36" fill-opacity="0.45"/>
<path d="M19.6609 21.9443L20.0245 21.6381L19.6476 21.342L20.1662 21.4369L20.3033 21.0318L20.4583 21.4328L20.9724 21.3238L20.6088 21.63L20.9857 21.926L20.4672 21.8312L20.33 22.2363L20.175 21.8353L19.6609 21.9443Z" fill="#9AF5FC"/>
<path d="M11.2768 10.1212L11.2911 10.8142L12.1713 10.8254L11.4161 11.1817L11.8439 11.7875L11.0745 11.4507L10.622 12.0452L10.6078 11.3522L9.72753 11.341L10.4827 10.9848L10.0549 10.379L10.8244 10.7158L11.2768 10.1212Z" fill="#9AF5FC" fill-opacity="0.6"/>
<path d="M35.0652 18.7119L35.8937 19.1305L36.8368 18.9079L36.305 19.5602L36.5878 20.3027L35.7593 19.884L34.8162 20.1066L35.348 19.4543L35.0652 18.7119Z" fill="#4BC8EF" fill-opacity="0.45"/>
<path d="M16.2709 11.9508L16.8539 12.5755L17.8356 12.6337L17.0422 13.0926L16.9683 13.8656L16.3854 13.2409L15.4036 13.1827L16.197 12.7238L16.2709 11.9508Z" fill="#FFED36" fill-opacity="0.85"/>
<path d="M42.5835 35.1501L43.6405 35.8409L44.9945 35.6588L44.1172 36.4909L44.3485 37.557L43.2915 36.8663L41.9374 37.0484L42.8148 36.2162L42.5835 35.1501Z" fill="#F62584" fill-opacity="0.65"/>
</svg>
